<svg xmlns="http://www.w3.org/2000/svg" width="1216.7" height="498.2" viewBox="0 0 1216.7 498.2"><path fill="#2caaff" d="M671.5 344c-13.9 63.6 80.3 65.3 114.7 34.3 8.3-4.1 36-30 36.5-9.3-10.1 49-66.8 78.2-113.7 79.2-35.2 1.1-61.1-26.3-77.3-54.6-18.5 18.5-53.9 46.8-77.4 20.8-12-9.6-12.6-23.2-9.6-37.2-39.2 33-93 37.8-113-17.8-58.6 69.1-164.3 93.1-162.6-28.9 3.5-72.7 48.2-180.5 97.3-234.2 3-1.9 8.5-9.9 11.4-7 4.9 13.9 6.4 28.8 6.1 43.5-1.4 22.8-7.9 44.8-13.6 66.7-7.9 26.3-67.7 172.6 1.1 147 20.2-9.9 34.1-30.6 56.3-36.5 10.7-30 25.8-59.7 53.3-79 10.3-9.6 36.4-3.4 32.2 12.2-9.5 29.8-29.8 57.2-28.6 89.6.7 6.3 4.6 20.4 12.2 18.6 21.5-8.5 39.3-24.9 50.4-45.1 11.4-18.3 33.4-99.9 48.6-95.5 13.5 9.3 32.3 22.2 30 40.8-1.1 25.8-21 44.8-27.1 69.1-4 16.8-16.9 58.4 9.3 62.1 5.5.8 16.5-.1 18.8-4.9-7.1-33.5-4-69.9 13.4-99.8 23.7-51.3 133.9-92.1 141.8-10.5.5 46.7-68.3 92.8-110.5 76.4zm1.7-9.4c31-19 68.9-36.6 81.7-72.9 1.7-5.9.9-6.7-5.1-6.5-41.9 3.3-70 39.9-76.6 79.4z"/><path fill="#ffc414" d="M1091.4 495.8c-59.8-1.3-107.6-12.4-159.9-36.7-30.8-16.7-63-32.2-89.1-56.1-6.9-7.6-19.9-17.4-11.3-28.2 6.3-9.7 20.4-2.2 28.2 1.5 60.5 28.8 122.4 54.4 188.7 65.5 39 6.5 131.4 3.2 108.2-57.9-9.3-25.5-29.5-44.6-53.8-56.6-90-44.7-277.7-127.2-206.2-243.5C944.7 4.8 1082.8-25 1159 28.4c24.7 17.4 23.7 50.8 20.1 77.4-3.3 11.2-7.9 40.3-20.9 37.6-43.6-9.2 31.4-89.4-70.4-102.2-52.3-6.2-107.1 18.3-142.4 56.3-26.4 29.9 12.8 65.5 34.7 85.6 55.1 50.3 113.9 63.7 166.8 107.1 101.6 83.5 85.4 200.8-55.5 205.6z"/><path fill="#2caaff" d="M153.5 285.5c30.7 8.1 63 14.1 88.7 33.6 31.4 24 24.2 71.9-.3 98.1-21.7 23.1-52.5 36-82.4 44.9-23.2 5.2-117.8 43-117.2 1.2-83.9 86.7-7-102 4-128.2 27-68.4 54.6-144.1 84.9-211.2C193 93.1 312.1 130 261.8 216c-24.9 37.2-67.2 56-108.3 69.5zM48.4 456.1c47.2 0 97.2-21.8 128.3-58.1 40.8-47.9-3.3-76.5-53.8-83.4-19.8 42-48 99.1-74.5 141.5zm97.7-208.6c46.3-11.7 149.3-95.6 38.2-93.1zm871.7-111.4c2.8 28.6 22.4 60.1 30.5 76.5-22.9-8.8-64.7-44.9-67.4-70.1-7.8-46.9 47.4-90.8 91.1-76.8 28.4 9 57.1 39.9 32 65-10.8 10.9-25.2-4-27.5-16.8-15.8-38.2-61.5-5.8-58.7 22.2zm67.4 224.3c.5 71.6-109.7 53.4-121.3 1.1-10-45 50.7 24.3 77.8 6.3 16.7-11.1-11.9-47.5-12.7-56.4 21.1 8.6 57.8 19.5 56.2 49z"/></svg>